<svg t="1706601593563" fill='#606266' class="icon" viewBox="0 0 1024 1024" version="1.1" xmlns="http://www.w3.org/2000/svg" p-id="1187" width="200" height="200"><path d="M516.224 981.333333l192-332.8a238.933333 238.933333 0 0 0-25.6-307.2h268.8a470.528 470.528 0 0 1-264.533333 610.133334 573.525333 573.525333 0 0 1-170.666667 29.866666z m-72.533333-4.266666a467.925333 467.925333 0 0 1-392.533334-533.333334 410.837333 410.837333 0 0 1 55.466667-157.866666l192 332.8a239.786667 239.786667 0 0 0 281.6 128l-136.533333 230.4z m68.266666-294.4a170.666667 170.666667 0 1 1 170.666667-170.666667 173.994667 173.994667 0 0 1-170.666667 170.666667z m-234.666666-230.4l-132.266667-234.666667a465.066667 465.066667 0 0 1 768 51.2h-405.333333a259.968 259.968 0 0 0-230.4 183.466667z" p-id="1188"></path></svg>
